<svg xmlns="http://www.w3.org/2000/svg"  viewBox="0 0 512 512" width="48px" height="48px"><path fill="#D6E5E5" d="M348.3 136.4c-.9-1.1-2.9-3-4.5-2.6-3.3.9-5.8-1-6.8-3.5-4.2-.6-9.7-.9-8.4 3 1.5 4.9 5.9 7.6 4.8 13.3-.7 3.5-3.5 6.2-6.1 8.4-.8.7-1.6 1.3-2.4 2 7.8.9 15.7-.1 23.6-.1.5-4.1.5-8.5 1-12.5C349.9 141.7 350.3 138.8 348.3 136.4zM227.2 321.1c-2.6-.7-5.1-1.5-7.3-3-2.6-1.8-5-3.7-7.2-5.9-1.2 4-2.2 8-3.8 11.9-.3.7-.7 1.3-1.2 1.8.1 1-.1 2.1-.8 3.2-3 4.6-8.3 5.4-13.2 6.8-1.2.4-2.9.7-4.4 1.3 4.3 1.2 8.6 2.2 12.9 3.3 3.3.8 6.7 1.9 10.1 2.4 2.3-2.8 2.7-8.7 3.8-11.7 1.7-4.7 8.7-7 12.6-9.8C228.2 321.4 227.7 321.2 227.2 321.1zM101.1 416.7c-4.7-2.1-8.1-5.3-10.8-9.2-2.2 2.5-3.7 5.9-5.3 8.6-.4.7-.9 1.2-1.4 1.6-.1.4-.3.9-.6 1.4-1.5 2.6-1.3 3.3.6 5.5-1.7-2 .6-.8 1.8-.4 1.5.4 2.8.9 4.1 1.6 2.3 1.2 3.2 3.5 4.1 5.8 1.1-.9 2.1-2 2.8-2.6 2-1.7 3.9-3.6 6.1-5 2.4-1.5 4.8-3 7.4-4.3C107 418.8 104 418 101.1 416.7zM149.4 366.3c0 1.4.1 2.7.2 4 0 1.7-.6 3-1.6 4 1.3 1.8 1.4 4.1-.8 6.1-2.3 2.1-4.9 3.3-7.5 4.9-.4.2-1 .5-1.6.9 0 0 .1 0 .1 0 3.9-.2 7.4-.1 11 1.5 3.3 1.4 7.4 4.2 11.1 4 1.3-.1 1.5-1.2 1.9-3.5.5-2.9.9-5.9 1.8-8.7 1.2-3.8 3.4-6 6.3-8.5.6-.5 1.3-1.1 1.9-1.6C164.4 369 155.7 369.4 149.4 366.3z"/><path fill="#EF4823" d="M257 203.9c-1.8-1.1-2.5-2.8-2.6-4.6-23-25.4-39.2-58.4-29.4-92-2.9 1.5-5.7 3.2-8.5 4.9 0 .6-.2 1.3-.5 2-7.3 16.5-5 38.3 4.3 53.5 5.9 9.7 13 19.4 20.3 28 3.4 4 7.5 7.2 11 11.1 1 1.2 1.5 1.8 2.2 2.5 1.4-1.6 2.7-3.2 4.1-4.9C257.6 204.2 257.3 204.1 257 203.9zM231.7 228.6c-4.5-6.1-10.3-11-15.3-16.8-7.2-8.2-13.1-17.7-19-26.8-5.5-8.6-10.6-17.4-13-27.5-1.7-6.9-2.5-13.9-2.8-20.9-2.6 2.9-4.6 6.2-4.7 9.9-.1 3-2.1 4.8-4.4 5.5 9 32.1 28.8 62.4 49.1 87.7 1.5.2 2.8.8 3.6 2.1 2.6-2.9 5.3-5.7 7.9-8.6C232.1 231.9 231.6 230.2 231.7 228.6z"/><path fill="#D6E5E5" d="M244.5,215.4c-1.7-2.2-3.7-4.1-5.7-6c-4.3-4.1-7.8-8.4-11.3-13.1c-7.1-9.3-14.6-18.5-19.9-29c-6.7-13.6-8.6-31-5.3-46.4c-3.4,2.2-6.8,4.4-10.1,6.8c0.1,0.5,0.2,1,0.2,1.6c0,9.3,0.4,18.8,3.2,27.7c3,9.8,8.3,18.1,13.9,26.6c5.5,8.4,11,17.2,18,24.3c4.9,5,10,9.9,13.9,15.6c1.6-1.9,3.3-3.8,4.9-5.7C245.7,217.2,245.2,216.3,244.5,215.4z"/><path fill="#EF4823" d="M272.6,27.8c-19.9-3.5-41.6-1.9-59.6,7.9c-6.7,3.6-12.8,8.1-18.2,13.3c3.7-0.9,7.5-1.4,11.1-2c12.2-2,24.3-4.7,36.6-6.3c19.9-2.5,40.3-2.6,60.5-2.5C293.5,33.3,283.3,29.7,272.6,27.8z"/><path fill="#D6E5E5" d="M320.5,49.2c-24.3,0-49.1-0.8-73.3,2c-12,1.4-23.7,4-35.6,5.9c-4.5,0.8-9.2,1.3-13.6,2.4c-3.1,0.8-7.3,1.5-9.7,3.7c-1.9,1.7-4.1,1.8-6,1.1c-5.2,8-9.1,17-11.4,26.4c-0.3,1.3-0.6,2.7-0.9,4c9.3-7.3,20.6-12.5,31.5-16.5c17-6.3,35-11,53-13.9c23.1-3.8,46.9-4.9,70.1-0.6c3.5,0.7,9.7,1.7,15.4,3.7C334,60.7,327.5,54.6,320.5,49.2z"/><path fill="#EF4823" d="M351.6 84.5c-3.1 4.5-11.6 2.3-10-3.7l0 0c-.8-.6-1.6-1-2.4-1.4-2.7-1.3-5.5-2.2-8.5-2.9-5.7-1.4-11.6-2.5-17.5-3.2-22-2.6-44.2-.7-65.8 3.5-15.2 3-30.7 7.2-45.1 13-12.9 5.1-25.9 11.7-34.7 22.7-.3 7.9.2 15.8 1.4 23.6 6.5-12.8 22.2-21.1 33.7-28.3 9.7-6.1 19.5-12.2 30.3-16.3 9.4-3.6 19.7-5.8 29.7-6.9 21.6-2.3 44-.4 64.4 7.2 13.8 5.1 26.6 13.9 37.1 24.7C361.7 105.2 357.4 94.4 351.6 84.5zM465.4 375.3c-1.5-1.2-2.3-3-2.3-4.8-9-8.1-19.6-14.1-29.3-21.4-12.8-9.6-25.5-19.2-38.2-28.8-12.8-9.7-26-19-37.9-29.8-10.3-9.3-20.1-19.2-30.3-28.8-2.8 3.8-5.7 7.7-8.7 11.4.3.1.6.3.8.5 13.8 9.3 26.7 19.9 39.7 30.4 12.3 9.9 24.4 20 36.2 30.5 11.6 10.4 23.1 20.8 35.7 29.9 6 4.3 12 8.4 18.5 11.9 5.3 2.8 10.6 5.8 15.2 9.7.7-2.7 1.3-5.5 2-8.2C466.2 377.1 465.7 376.2 465.4 375.3z"/><path fill="#D6E5E5" d="M314.2,199.9c-0.8,2.3-1.5,4.6-2.2,6.9c0.5,0.2,1,0.5,1.4,0.8c1.9,1.2,3.7,3.5,3,6c0,0,0,0.1,0,0.1c-0.6,1.7-1.6,3.7-3.6,4.1c-0.8,0.2-1.5,0.3-2.3,0.4c-1.5,0.1-2.8-0.4-3.7-1.2c-0.4-0.1-0.9-0.2-1.3-0.3c-0.6-0.1-3.7-0.5-3-0.5c-4.8,0.2-9.5,1.2-14.2,2.2c1.1,0.4,2.3,0.6,3.4,0.7c3.1,0.5,6.4,0.8,9.4,1.8c4.4,1.3,17.7,9.4,17.2-0.3c-0.2-4.7-0.3-11,4.2-13.9c0.8-0.5,1.7-1,2.5-1.4C320.7,204.3,317.2,202.5,314.2,199.9z"/><path fill="#1E4384" d="M363.3,132.1c-10.5-13.5-25.1-24.9-41.1-30.5c-0.8-0.3-1.5-0.5-2.3-0.8c0,0.2,0.1,0.5,0.1,0.7c-0.2,18.5-5.8,36.6-14.1,53.1c-13,25.9-32.4,48.7-51.2,70.6c-19.7,23-40.6,44.9-62.6,65.6c-22.8,21.5-47.1,41.1-71.9,60.4c-12.2,9.4-24,19.2-37.3,27.1c-6.2,3.7-13,7-18.7,11.6c-3.1,2.5-6.2,5.5-9.7,7.5c2,11.2,9.3,21.1,12.4,31.9c3.9,13.4,7,27.1,9.2,40.9c44.9-26.1,88.2-55.3,127-90c19.9-17.8,38.4-37,56.8-56.4c18.5-19.6,36.6-39.6,53-61c27.4-35.7,54.8-77.7,54-123.7C364,138.1,362.7,134.8,363.3,132.1z M128.5,419.3c0,2.6-1.2,4.6-3.7,5.6c-7.3,3-14.4,6.5-20.4,11.6c-3.8,3.3-11.7,11-17.1,6.3c-2.2-1.9-3.1-5.2-4.2-7.9c-0.8-0.2-1.7-0.3-2.6-0.5c-1.6-0.4-3.3-0.8-4.6-2c-5.5-4.9-6.7-11.9-2.9-18.3c0.4-0.7,0.9-1.2,1.4-1.6c0.1-0.4,0.3-0.9,0.6-1.4c4-6.8,7.4-13.6,15.1-16.7c3-1.2,5.8,0.8,7,3.4c5.4,11.5,18.4,10.4,28.3,15.9c1.6,0.9,3,2.6,3,4.5V419.3z M186.4,365.7c-0.5,5.9-4.9,9.8-9.1,13.4c-3.4,2.9-3.5,5.8-4.2,10.1c-1.6,9.1-7.2,15.3-17.1,12.8c-6-1.5-10.8-5.3-17-5c-5,0.2-9.9-0.6-12.5-5.3c-2.3-4.3-0.9-9,2.5-12.3c2.9-2.8,7-3.8,10-6.4c0,0,0,0,0,0c-0.2-0.6-0.4-1.2-0.4-1.9c-0.1-7-0.4-13.4,4.4-19.1c2.7-3.1,8-2.1,9.3,1.8c1.4,4.4,9.7,4.3,13.4,4.5c5.4,0.2,11.1-0.2,16.5,1C185.3,360,186.7,362.7,186.4,365.7z M234.3,331c-2.8,1.8-8,3.6-8.8,7c-1,4-1.8,8.2-4.2,11.6c-3.7,5.3-8.3,4.6-13.8,3.4c-6.4-1.4-12.8-3-19.1-4.7c-4-1.1-10.8-1.8-11.8-6.7c-1.5-7,2.2-11.7,8.5-14.4c2.7-1.1,5.6-1.9,8.4-2.7c1.2-0.4,2.5-0.7,3.7-1.2c1-0.4,0.9-0.8-0.1,0.8c0.5-0.7,1-1.3,1.7-1.7c-0.2-1-0.1-2.1,0.3-3.3c2.8-6.9,3.9-14.3,7-21c1.6-3.5,7.5-4.3,9.5-0.6c2.4,4.6,5.8,8.9,10.5,11.4c3.3,1.8,7.3,2,10.6,3.9C244.7,317.7,240.4,326.9,234.3,331z M284.5,273.9c-1.7,2.1-3.8,4.2-4.9,6.7c-1.1,2.4-1.3,5.1-2.4,7.5c-5.4,11.8-16,5.8-25.5,4.5c-4.9-0.7-9.9,0.3-14.6-1.3c-5.6-1.9-8-7.5-9.2-12.8c-0.7-3.1,0.4-5.7,3.4-7c3.9-1.7,8.4-2.1,12.6-2.8c1.2-0.2,3.7-0.4,5.7-0.9c-0.8-1.1-1.2-2.4-0.9-4.1c1.1-6.1,2.9-11.9,4-18c0.7-3.9,6.1-6.1,9-3.1c2.6,2.6,5.3,6.2,8.7,7.8c3.5,1.6,5.7,1.3,9.4,1.2c5.6-0.2,12.1,1.8,12.2,8.5C292,265.4,287.7,270,284.5,273.9z M332.8,213.5c-1.4,0.7-3,1.3-4.2,2.3c0.7-0.6,0.6,3.4,0.6,4c-0.1,4.1-1,8.6-3.7,11.9c-4.7,5.9-11.8,5.2-18.2,3c-6-2.1-11.5-3.8-17.7-4.8c-5.5-0.9-12.2-3.5-12.3-10.2c0-3.4,0.6-8.6,3.7-10.6c2.2-1.5,5.9-1.6,8.5-2.1c2.2-0.5,4.5-1,6.8-1.3c1.4-0.2,3-0.3,4.8-0.4c1.9-5.9,3.9-11.7,5.6-17.6c1.2-4.3,7.2-6.5,10-2c2.1,3.4,4.9,8.2,9.4,8.9c3.5,0.6,7,0.6,9.9,2.7C342.7,202.2,339,210.3,332.8,213.5z M359.6,151.1c-0.5,4.3,0,8.4-1.2,12.6c-0.9,3.1-3.3,4.6-6.4,4.3c-7.1-0.6-14.2,0.5-21.4,0.4c-5-0.1-12.1,0.1-16.2-3.5c-3.3-2.8-3.8-7-1.6-10.7c2.1-3.7,7.5-5.8,9.6-9.4c-0.1-0.2-0.3-0.7-0.8-1.3c-1.1-1.5-2.1-3-2.8-4.7c-1.7-4.2-2-9.3,0.3-13.3c4.6-8.2,16.3-6.5,24-5.2c2.1,0.3,3.4,1.5,3.9,3c6.1,1.3,11.5,6.4,13.2,12.6C361.6,140.9,360.2,146.1,359.6,151.1z"/><path fill="#D6E5E5" d="M456.4,394.8c-1.3-0.9-1.9-2-2.1-3.1c-4.3-3-9-5.3-13.7-7.9c-6.3-3.6-12.3-7.9-18.1-12.2c-12.5-9.3-24-19.7-35.6-30.1c-11.8-10.6-24-20.5-36.4-30.5c-12.5-10.1-24.9-20.2-38.2-29.2c-0.1-0.1-0.2-0.2-0.3-0.2c-3.4,4.3-7,8.4-10.5,12.6c2.6,0.1,4.1,1.9,4.6,4c0.8,0.6,1.5,1.2,2.4,1.7c1.9,1.3,3.8,2.4,5.7,3.6c6.5,3.8,12.4,8.7,18.4,13.4c7.8,6.2,15.5,12.5,23.9,17.8c7.4,4.7,14.4,10.1,20.8,16.1c12.7,12,23.7,25.7,36.7,37.4c12.1,11,24.8,21,35.9,33.1c1.9-2.7,3.7-5.5,5.3-8.4c2.9-5,5-10.4,6.7-15.9C459.9,396.8,458.3,396.2,456.4,394.8z"/><path fill="#EF4823" d="M440.8,427.6c-12.7-13.7-28-24.6-41.2-37.9c-13.4-13.5-25.5-28.7-40.9-40.1c-8.6-6.4-17.7-12-26.1-18.6c-7.2-5.6-14.2-12.3-22.1-16.9c-4.2-2.4-8.8-5-12.5-8.3c-1.4-1.2-2.3-2.8-2.7-4.4c-3.1,3.6-6.3,7.2-9.5,10.7c0.5,0.7,0.9,1.5,1.1,2.5c1,5.2,9.2,10.1,13,12.9c6,4.4,11.4,9.3,16.7,14.5c13.1,13,25.5,26.7,39,39.3c13.2,12.2,27.4,23.2,42.1,33.5c7.2,5,14.6,9.8,21.6,15.2c5.6,4.3,11,8.8,16.8,12.8c1.8-3.6,3.9-7,6.2-10.4C441.1,431.1,440.6,429.2,440.8,427.6z"/><path fill="#D6E5E5" d="M266.8,260.8c-2-0.9-3.8-2.1-5.5-3.5c-0.5,2.3-1.1,4.5-1.5,6.8c2.2,1.4,3.5,4,2.2,7c-3.6,8.1-13.6,7.7-21.7,9.2c0.7,0.6,1.6,1,2.9,1c4.3,0,8.7-0.2,12.9,0.9c3.1,0.8,7.6,2.9,10.8,2.4c-0.9,0.1,0.2-0.7,0.5-1.5c0.8-1.9,1.1-4,1.7-6c1.4-4,4.5-7.4,7.1-10.6c1.1-1.3,2.3-2.6,3.3-4.1C275.1,262.7,271.1,262.8,266.8,260.8z"/><path fill="#010101" d="M125.5,413.8c-9.9-5.5-22.9-4.4-28.3-15.9c-1.2-2.6-4-4.6-7-3.4c-7.7,3.1-11.1,10-15.1,16.7c-0.3,0.5-0.5,0.9-0.6,1.4c-0.5,0.4-1,1-1.4,1.6c-3.8,6.4-2.6,13.4,2.9,18.3c1.3,1.1,3,1.6,4.6,2c0.9,0.1,1.7,0.3,2.6,0.5c1.2,2.6,2,5.9,4.2,7.9c5.3,4.7,13.2-3.1,17.1-6.3c6-5.1,13.1-8.6,20.4-11.6c2.4-1,3.7-3,3.7-5.6v-1C128.5,416.3,127.1,414.6,125.5,413.8z M102.6,424c-2.2,1.4-4.1,3.3-6.1,5c-0.7,0.6-1.7,1.6-2.8,2.6c-0.9-2.3-1.8-4.6-4.1-5.8c-1.4-0.7-2.7-1.1-4.1-1.6c-1.2-0.4-3.5-1.5-1.8,0.4c-1.9-2.2-2.2-2.9-0.6-5.5c0.3-0.5,0.5-0.9,0.6-1.4c0.5-0.4,1-1,1.4-1.6c1.6-2.7,3.1-6.1,5.3-8.6c2.7,3.9,6.2,7,10.8,9.2c2.9,1.3,5.9,2.2,8.9,3C107.4,421,104.9,422.4,102.6,424z"/><path fill="#010101" d="M476.5,369.5c-0.3-1-0.7-1.9-1.4-2.7c-9.4-10.2-21.5-17.2-32.7-25.1c-13.4-9.5-26.3-19.8-39.5-29.7c-12.3-9.3-25-18.3-36.6-28.6c-11.1-9.9-21.5-20.5-32.4-30.7c0.5-0.8,1.1-1.5,1.6-2.3c15.4-22.2,29.8-46.1,37.3-72.3c6.5-23,6.6-47.5,0.4-70.5c-12.1-44.8-51-80.5-96.1-90.1c-20.3-4.3-42-2.9-61.3,4.8c-20.9,8.4-37.5,24.5-47.8,44.5c-26.5,51.5-3.3,110.1,26.3,154.6c6.6,9.9,13.9,19.5,21.5,28.7c0.3,0.3,0.5,0.6,0.8,0.8c-20.5,21.6-42,42.4-65,61.4c-12.3,10.2-25,20.1-37.7,29.9c-12.2,9.5-24.1,19.2-37.3,27.1c-6.7,4-13.8,7.6-19.8,12.5c-2.5,2-4.9,4.2-7.6,5.9c-2.8-0.2-6,1.5-6.3,5c-0.9,1.9-0.6,3.7,0.4,5c1.6,11.5,8.2,21.8,12.2,32.5c4.7,12.6,7.4,26.4,9.4,39.8c-1.3,1.6-1.7,3.9-0.1,6.1c0.5,0.6,1,1.2,1.5,1.7c1.1,2.5,3.6,3.6,6,3.4c1.7,1.2,3.9,1.6,6.2,0.3c50.1-28.9,97.9-61.8,140.6-101.1c20.5-18.9,39.8-39.2,58.7-59.7c4.9,9.9,17,15.6,24.8,22.9c14.4,13.5,27.7,28.3,41.9,42.1c13.7,13.4,28.9,25.1,44.5,36.1c7.7,5.4,15.6,10.5,23.1,16.2c7.9,6.1,15.6,12.3,24,17.7c2.3,1.5,6.4,0.1,7.4-2.5c5.1-13.6,15.3-24.5,22.4-37c7.1-12.4,9.6-27.6,13-41.4C479.5,372.7,478.3,370.7,476.5,369.5z M213,35.7c18-9.7,39.7-11.4,59.6-7.9c10.6,1.9,20.9,5.4,30.4,10.3c-20.2-0.1-40.6,0.1-60.5,2.5c-12.3,1.5-24.4,4.3-36.6,6.3c-3.6,0.6-7.4,1.1-11.1,2C200.2,43.8,206.3,39.3,213,35.7z M170.7,90.9c2.4-9.5,6.3-18.4,11.4-26.4c1.9,0.7,4.2,0.6,6-1.1c2.5-2.2,6.6-3,9.7-3.7c4.5-1.1,9.1-1.7,13.6-2.4c11.9-2,23.6-4.6,35.6-5.9c24.1-2.8,49-2,73.3-2c7.1,5.4,13.5,11.6,19.2,18.4c-5.7-2-11.8-3-15.4-3.7c-23.2-4.3-46.9-3.2-70.1,0.6c-17.9,2.9-35.9,7.6-53,13.9c-10.9,4-22.1,9.2-31.5,16.5C170.1,93.5,170.4,92.2,170.7,90.9z M167.6,112.4c8.7-11,21.8-17.6,34.7-22.7c14.4-5.7,29.9-10,45.1-13c21.6-4.3,43.9-6.1,65.8-3.5c5.9,0.7,11.7,1.8,17.5,3.2c2.9,0.7,5.7,1.6,8.5,2.9c0.9,0.4,1.7,0.9,2.4,1.4l0,0c-1.6,6,6.9,8.2,10,3.7c5.8,9.9,10.1,20.7,12.6,32c-10.5-10.8-23.3-19.6-37.1-24.7c-20.4-7.5-42.8-9.5-64.4-7.2c-10,1.1-20.3,3.2-29.7,6.9c-10.7,4.1-20.6,10.2-30.3,16.3c-11.4,7.2-27.1,15.5-33.7,28.3C167.8,128.3,167.3,120.4,167.6,112.4z M308.8,107.2C307,134,292.7,159,276.9,180c-3.8,5.1-7.7,10-11.6,15c-23.6-24.6-42-58.7-26.9-92.6c0.2-0.5,0.4-1,0.4-1.5c8.9-3.3,18.6-4.8,28-5.8c14.3-1.4,29.2-0.5,43.3,2.9C306.7,99.8,306.3,104.8,308.8,107.2z M207.6,167.3c5.2,10.6,12.8,19.7,19.9,29c3.6,4.7,7,9,11.3,13.1c2,1.9,4,3.8,5.7,6c0.7,0.9,1.2,1.7,2,2.4c-1.6,1.9-3.2,3.8-4.9,5.7c-4-5.8-9-10.7-13.9-15.6c-7.1-7.1-12.6-15.9-18-24.3c-5.6-8.5-10.9-16.8-13.9-26.6c-2.8-8.9-3.2-18.5-3.2-27.7c0-0.6-0.1-1.1-0.2-1.6c3.3-2.4,6.6-4.6,10.1-6.8C199,136.3,200.9,153.7,207.6,167.3z M240.6,195.6c-7.3-8.7-14.4-18.4-20.3-28c-9.3-15.2-11.7-37-4.3-53.5c0.3-0.7,0.5-1.4,0.5-2c2.8-1.7,5.6-3.3,8.5-4.9c-9.8,33.7,6.4,66.6,29.4,92c0.1,1.7,0.9,3.4,2.6,4.6c0.3,0.2,0.5,0.3,0.8,0.5c-1.3,1.6-2.7,3.3-4.1,4.9c-0.7-0.6-1.2-1.3-2.2-2.5C248.1,202.8,244,199.6,240.6,195.6z M172.5,152c2.3-0.6,4.3-2.5,4.4-5.5c0.2-3.7,2.1-7,4.7-9.9c0.3,7,1.1,14,2.8,20.9c2.4,10,7.5,18.9,13,27.5c5.9,9.2,11.8,18.6,19,26.8c5,5.7,10.8,10.7,15.3,16.8c-0.1,1.6,0.3,3.3,1.4,4.5c-2.6,2.9-5.2,5.8-7.9,8.6c-0.8-1.3-2.1-2-3.6-2.1C201.4,214.4,181.5,184.1,172.5,152z M259.9,323.9c-18.3,19.4-36.9,38.6-56.8,56.4c-38.7,34.7-82.1,63.9-127,90c-2.2-13.8-5.4-27.5-9.2-40.9c-3.1-10.9-10.4-20.8-12.4-31.9c3.5-2,6.6-4.9,9.7-7.5c5.6-4.6,12.4-7.9,18.7-11.6c13.3-7.9,25.1-17.6,37.3-27.1c24.8-19.2,49.1-38.8,71.9-60.4c22-20.8,42.9-42.7,62.6-65.6c18.8-21.9,38.2-44.7,51.2-70.6c8.2-16.5,13.9-34.6,14.1-53.1c0-0.2,0-0.5-0.1-0.7c0.8,0.3,1.5,0.5,2.3,0.8c16,5.6,30.6,17,41.1,30.5c-0.6,2.7,0.7,6,3.6,7c0.7,46-26.6,88-54,123.7C296.5,284.2,278.4,304.3,259.9,323.9z M436.1,442.7c-5.7-4.1-11.2-8.5-16.8-12.8c-7-5.4-14.4-10.2-21.6-15.2c-14.7-10.3-28.9-21.3-42.1-33.5c-13.5-12.5-25.9-26.3-39-39.3c-5.3-5.3-10.7-10.1-16.7-14.5c-3.9-2.9-12.1-7.7-13-12.9c-0.2-1-0.6-1.8-1.1-2.5c3.2-3.5,6.4-7.1,9.5-10.7c0.4,1.6,1.3,3.2,2.7,4.4c3.6,3.3,8.2,5.8,12.5,8.3c7.9,4.6,14.9,11.3,22.1,16.9c8.4,6.6,17.5,12.2,26.1,18.6c15.3,11.5,27.5,26.6,40.9,40.1c13.2,13.3,28.5,24.1,41.2,37.9c-0.2,1.7,0.4,3.5,1.5,4.8C440,435.7,437.9,439.1,436.1,442.7z M455.2,412.9c-1.6,2.9-3.4,5.7-5.3,8.4c-11-12.1-23.7-22.1-35.9-33.1c-13-11.7-24-25.4-36.7-37.4c-6.4-6-13.3-11.4-20.8-16.1c-8.4-5.3-16.1-11.7-23.9-17.8c-5.9-4.7-11.8-9.6-18.4-13.4c-1.9-1.1-3.9-2.3-5.7-3.6c-0.8-0.5-1.6-1.1-2.4-1.7c-0.5-2.1-2.1-3.9-4.6-4c3.6-4.2,7.1-8.4,10.5-12.6c0.1,0.1,0.2,0.2,0.3,0.2c13.3,9,25.7,19.1,38.2,29.2c12.3,10,24.5,19.9,36.4,30.5c11.6,10.4,23.2,20.8,35.6,30.1c5.8,4.3,11.8,8.7,18.1,12.2c4.6,2.6,9.3,4.9,13.7,7.9c0.2,1.1,0.8,2.2,2.1,3.1c1.9,1.3,3.4,2,5.5,2.2C460.1,402.6,458,407.9,455.2,412.9z M464.9,386c-4.6-3.9-9.8-6.9-15.2-9.7c-6.5-3.5-12.5-7.5-18.5-11.9c-12.6-9.1-24.2-19.6-35.7-29.9c-11.8-10.6-23.9-20.6-36.2-30.5c-13-10.5-25.8-21.1-39.7-30.4c-0.3-0.2-0.6-0.3-0.8-0.5c2.9-3.8,5.8-7.6,8.7-11.4c10.1,9.6,19.9,19.5,30.3,28.8c11.9,10.8,25.1,20.1,37.9,29.8c12.7,9.6,25.4,19.2,38.2,28.8c9.7,7.3,20.3,13.3,29.3,21.4c0,1.8,0.8,3.7,2.3,4.8c0.3,0.9,0.8,1.8,1.5,2.5C466.3,380.5,465.6,383.3,464.9,386z"/><path fill="#010101" d="M182.1 359.3c-5.3-1.2-11.1-.8-16.5-1-3.7-.1-11.9-.1-13.4-4.5-1.3-3.9-6.7-4.9-9.3-1.8-4.8 5.6-4.5 12.1-4.4 19.1 0 .7.1 1.4.4 1.9 0 0 0 0 0 0-2.9 2.6-7.1 3.6-10 6.4-3.3 3.2-4.8 8-2.5 12.3 2.6 4.8 7.5 5.6 12.5 5.3 6.2-.3 11.1 3.5 17 5 9.9 2.4 15.5-3.8 17.1-12.8.7-4.2.9-7.2 4.2-10.1 4.2-3.6 8.6-7.5 9.1-13.4C186.7 362.7 185.3 360 182.1 359.3zM170.2 370.9c-2.9 2.5-5.1 4.8-6.3 8.5-.9 2.8-1.3 5.8-1.8 8.7-.4 2.3-.5 3.4-1.9 3.5-3.7.3-7.8-2.5-11.1-4-3.7-1.6-7.1-1.8-11-1.5 0 0-.1 0-.1 0 .6-.3 1.2-.6 1.6-.9 2.6-1.6 5.2-2.9 7.5-4.9 2.2-1.9 2.1-4.3.8-6.1 1-1 1.6-2.3 1.6-4 0-1.3-.1-2.6-.2-4 6.3 3.1 15.1 2.7 22.7 3C171.5 369.8 170.8 370.4 170.2 370.9zM236.7 312.9c-3.3-1.9-7.2-2.1-10.6-3.9-4.7-2.5-8.1-6.8-10.5-11.4-2-3.7-7.9-2.9-9.5.6-3.1 6.7-4.2 14.1-7 21-.5 1.2-.5 2.3-.3 3.3-.6.4-1.2 1-1.7 1.7 1.1-1.7 1.1-1.2.1-.8-1.2.5-2.5.8-3.7 1.2-2.8.8-5.7 1.6-8.4 2.7-6.3 2.6-10 7.4-8.5 14.4 1 4.9 7.9 5.6 11.8 6.7 6.3 1.7 12.7 3.2 19.1 4.7 5.4 1.2 10 1.8 13.8-3.4 2.4-3.4 3.2-7.6 4.2-11.6.8-3.4 6.1-5.2 8.8-7C240.4 326.9 244.7 317.7 236.7 312.9zM216.1 331.2c-1.1 3-1.4 8.9-3.8 11.7-3.4-.6-6.8-1.7-10.1-2.4-4.3-1-8.6-2.1-12.9-3.3 1.5-.6 3.3-1 4.4-1.3 4.9-1.5 10.2-2.2 13.2-6.8.7-1.1 1-2.2.8-3.2.5-.5.9-1.1 1.2-1.8 1.6-3.9 2.6-7.9 3.8-11.9 2.1 2.2 4.5 4.1 7.2 5.9 2.3 1.5 4.7 2.3 7.3 3 .5.1 1 .2 1.4.4C224.9 324.3 217.8 326.6 216.1 331.2zM279.7 251.5c-3.7.1-5.9.4-9.4-1.2-3.4-1.6-6.1-5.2-8.7-7.8-3-3-8.3-.8-9 3.1-1.1 6.1-2.9 11.9-4 18-.3 1.7.1 3.1.9 4.1-2 .6-4.6.8-5.7.9-4.2.7-8.7 1-12.6 2.8-3 1.3-4.1 3.9-3.4 7 1.2 5.3 3.6 10.9 9.2 12.8 4.8 1.6 9.7.6 14.6 1.3 9.6 1.3 20.1 7.4 25.5-4.5 1.1-2.4 1.3-5.2 2.4-7.5 1.1-2.5 3.2-4.6 4.9-6.7 3.2-3.9 7.6-8.5 7.4-13.9C291.8 253.4 285.3 251.3 279.7 251.5zM276.2 266.6c-2.7 3.2-5.7 6.6-7.1 10.6-.7 2-1 4-1.7 6-.3.8-1.4 1.6-.5 1.5-3.2.5-7.7-1.6-10.8-2.4-4.2-1.1-8.6-.9-12.9-.9-1.3 0-2.2-.4-2.9-1 8.1-1.5 18.1-1.1 21.7-9.2 1.3-3-.1-5.6-2.2-7 .5-2.3 1-4.5 1.5-6.8 1.7 1.3 3.4 2.5 5.5 3.5 4.3 2 8.3 1.9 12.8 1.7C278.5 264 277.3 265.3 276.2 266.6zM335.9 197.3c-2.9-2.2-6.5-2.2-9.9-2.7-4.4-.7-7.3-5.5-9.4-8.9-2.7-4.5-8.7-2.2-10 2-1.7 5.9-3.8 11.7-5.6 17.6-1.7.1-3.4.2-4.8.4-2.3.3-4.5.9-6.8 1.3-2.6.6-6.2.6-8.5 2.1-3.1 2.1-3.7 7.3-3.7 10.6.1 6.6 6.8 9.3 12.3 10.2 6.3 1 11.8 2.7 17.7 4.8 6.5 2.2 13.5 2.9 18.2-3 2.7-3.3 3.6-7.8 3.7-11.9 0-.5.1-4.5-.6-4 1.2-1 2.8-1.6 4.2-2.3C339 210.3 342.7 202.2 335.9 197.3zM322.5 206.7c-4.5 2.9-4.4 9.2-4.2 13.9.5 9.7-12.8 1.6-17.2.3-3-.9-6.3-1.3-9.4-1.8-1.1-.2-2.4-.3-3.4-.7 4.7-1 9.4-2.1 14.2-2.2-.7 0 2.3.4 3 .5.4.1.9.2 1.3.3.9.8 2.2 1.2 3.7 1.2.8 0 1.5-.2 2.3-.4 2-.4 3-2.4 3.6-4.1 0 0 0-.1 0-.1.8-2.5-1.1-4.8-3-6-.4-.3-.9-.5-1.4-.8.7-2.3 1.5-4.6 2.2-6.9 3 2.6 6.5 4.4 10.8 5.4C324.1 205.7 323.3 206.2 322.5 206.7zM360.2 135.9c-1.7-6.2-7.1-11.3-13.2-12.6-.6-1.5-1.9-2.7-3.9-3-7.7-1.3-19.4-3-24 5.2-2.3 4.1-1.9 9.1-.3 13.3.7 1.7 1.7 3.3 2.8 4.7.5.7.7 1.1.8 1.3-2 3.6-7.4 5.7-9.6 9.4-2.2 3.7-1.6 7.9 1.6 10.7 4.1 3.6 11.2 3.3 16.2 3.5 7.1.2 14.2-1 21.4-.4 3.2.3 5.6-1.2 6.4-4.3 1.2-4.2.7-8.4 1.2-12.6C360.2 146.1 361.6 140.9 360.2 135.9zM349.5 144.5c-.5 4.1-.5 8.4-1 12.5-7.9 0-15.8 1-23.6.1.8-.7 1.7-1.3 2.4-2 2.5-2.2 5.4-5 6.1-8.4 1.1-5.7-3.3-8.5-4.8-13.3-1.2-3.9 4.2-3.7 8.4-3 1 2.5 3.5 4.4 6.8 3.5 1.6-.4 3.6 1.5 4.5 2.6C350.3 138.8 349.9 141.7 349.5 144.5z"/></svg>